<svg width="14" height="14" viewBox="0 0 14 14" fill="none" xmlns="http://www.w3.org/2000/svg">
<g opacity="0.497652">
<path fill-rule="evenodd" clip-rule="evenodd" d="M8.16465 1.17677C7.52143 0.533551 6.47857 0.533551 5.83535 1.17677L1.17677 5.83535C1.13657 5.87555 1.09888 5.91732 1.0637 5.96044C0.536064 6.60737 0.573752 7.56163 1.17677 8.16465L5.83535 12.8232C6.47857 13.4664 7.52143 13.4664 8.16465 12.8232C8.80786 12.18 8.80786 11.1372 8.16465 10.4939L4.67071 7L8.16465 3.50606C8.80786 2.86284 8.80786 1.81998 8.16465 1.17677Z" fill="#3A4562"/>
<mask id="mask0_1_10" style="mask-type:alpha" maskUnits="userSpaceOnUse" x="0" y="0" width="9" height="14">
<path fill-rule="evenodd" clip-rule="evenodd" d="M8.16465 1.17677C7.52143 0.533551 6.47857 0.533551 5.83535 1.17677L1.17677 5.83535C1.13657 5.87555 1.09888 5.91732 1.0637 5.96044C0.536064 6.60737 0.573752 7.56163 1.17677 8.16465L5.83535 12.8232C6.47857 13.4664 7.52143 13.4664 8.16465 12.8232C8.80786 12.18 8.80786 11.1372 8.16465 10.4939L4.67071 7L8.16465 3.50606C8.80786 2.86284 8.80786 1.81998 8.16465 1.17677Z" fill="white"/>
</mask>
<g mask="url(#mask0_1_10)">
<rect width="11.1176" height="14" fill="white"/>
</g>
</g>
</svg>
